<mxfile host="app.diagrams.net" modified="2023-04-21T08:24:34.004Z" agent="Mozilla/5.0 (Windows NT 10.0; Win64; x64) AppleWebKit/537.36 (KHTML, like Gecko) Chrome/112.0.0.0 Safari/537.36" etag="5d6UoFmAHoYD3eUdbHIG" version="21.2.1" type="github">
  <diagram name="Page-1" id="AZhgo__BEIIF-JYw-Mxj">
    <mxGraphModel dx="2284" dy="796" grid="1" gridSize="10" guides="1" tooltips="1" connect="1" arrows="1" fold="1" page="1" pageScale="1" pageWidth="850" pageHeight="1100" math="0" shadow="0">
      <root>
        <mxCell id="0" />
        <mxCell id="1" parent="0" />
        <mxCell id="cLlq7skqqOOSIgNOw3ur-14" style="edgeStyle=orthogonalEdgeStyle;rounded=0;orthogonalLoop=1;jettySize=auto;html=1;" parent="1" source="NO40qMgpg6h3hOK221bb-1" target="cLlq7skqqOOSIgNOw3ur-13" edge="1">
          <mxGeometry relative="1" as="geometry" />
        </mxCell>
        <mxCell id="cLlq7skqqOOSIgNOw3ur-15" value="call api" style="edgeLabel;html=1;align=center;verticalAlign=middle;resizable=0;points=[];" parent="cLlq7skqqOOSIgNOw3ur-14" vertex="1" connectable="0">
          <mxGeometry x="-0.2081" y="-2" relative="1" as="geometry">
            <mxPoint as="offset" />
          </mxGeometry>
        </mxCell>
        <mxCell id="cLlq7skqqOOSIgNOw3ur-34" style="edgeStyle=orthogonalEdgeStyle;rounded=0;orthogonalLoop=1;jettySize=auto;html=1;exitX=1;exitY=0.75;exitDx=0;exitDy=0;exitPerimeter=0;entryX=0;entryY=0.5;entryDx=0;entryDy=0;entryPerimeter=0;" parent="1" source="NO40qMgpg6h3hOK221bb-1" target="cLlq7skqqOOSIgNOw3ur-33" edge="1">
          <mxGeometry relative="1" as="geometry" />
        </mxCell>
        <mxCell id="cLlq7skqqOOSIgNOw3ur-38" value="call api" style="edgeLabel;html=1;align=center;verticalAlign=middle;resizable=0;points=[];" parent="cLlq7skqqOOSIgNOw3ur-34" vertex="1" connectable="0">
          <mxGeometry x="-0.1948" relative="1" as="geometry">
            <mxPoint as="offset" />
          </mxGeometry>
        </mxCell>
        <mxCell id="cLlq7skqqOOSIgNOw3ur-37" value="get secret" style="edgeStyle=orthogonalEdgeStyle;rounded=0;orthogonalLoop=1;jettySize=auto;html=1;" parent="1" source="NO40qMgpg6h3hOK221bb-1" target="cLlq7skqqOOSIgNOw3ur-36" edge="1">
          <mxGeometry relative="1" as="geometry" />
        </mxCell>
        <mxCell id="NO40qMgpg6h3hOK221bb-1" value="SMS client Function" style="sketch=0;points=[[0,0,0],[0.25,0,0],[0.5,0,0],[0.75,0,0],[1,0,0],[0,1,0],[0.25,1,0],[0.5,1,0],[0.75,1,0],[1,1,0],[0,0.25,0],[0,0.5,0],[0,0.75,0],[1,0.25,0],[1,0.5,0],[1,0.75,0]];outlineConnect=0;fontColor=#232F3E;gradientColor=#F78E04;gradientDirection=north;fillColor=#D05C17;strokeColor=#ffffff;dashed=0;verticalLabelPosition=bottom;verticalAlign=top;align=center;html=1;fontSize=12;fontStyle=0;aspect=fixed;shape=mxgraph.aws4.resourceIcon;resIcon=mxgraph.aws4.lambda;" parent="1" vertex="1">
          <mxGeometry x="550" y="240" width="78" height="78" as="geometry" />
        </mxCell>
        <mxCell id="cLlq7skqqOOSIgNOw3ur-21" value="call" style="edgeStyle=orthogonalEdgeStyle;rounded=0;orthogonalLoop=1;jettySize=auto;html=1;entryX=0;entryY=0.5;entryDx=0;entryDy=0;entryPerimeter=0;" parent="1" source="NO40qMgpg6h3hOK221bb-3" target="NO40qMgpg6h3hOK221bb-1" edge="1">
          <mxGeometry relative="1" as="geometry" />
        </mxCell>
        <mxCell id="cLlq7skqqOOSIgNOw3ur-27" value="update execution ARN" style="edgeStyle=orthogonalEdgeStyle;rounded=0;orthogonalLoop=1;jettySize=auto;html=1;entryX=0.5;entryY=1;entryDx=0;entryDy=0;entryPerimeter=0;" parent="1" source="NO40qMgpg6h3hOK221bb-3" target="cLlq7skqqOOSIgNOw3ur-10" edge="1">
          <mxGeometry relative="1" as="geometry">
            <Array as="points">
              <mxPoint x="430" y="370" />
              <mxPoint x="76" y="370" />
            </Array>
          </mxGeometry>
        </mxCell>
        <mxCell id="NO40qMgpg6h3hOK221bb-3" value="Step Function" style="sketch=0;points=[[0,0,0],[0.25,0,0],[0.5,0,0],[0.75,0,0],[1,0,0],[0,1,0],[0.25,1,0],[0.5,1,0],[0.75,1,0],[1,1,0],[0,0.25,0],[0,0.5,0],[0,0.75,0],[1,0.25,0],[1,0.5,0],[1,0.75,0]];outlineConnect=0;fontColor=#232F3E;gradientColor=#FF4F8B;gradientDirection=north;fillColor=#BC1356;strokeColor=#ffffff;dashed=0;verticalLabelPosition=bottom;verticalAlign=top;align=center;html=1;fontSize=12;fontStyle=0;aspect=fixed;shape=mxgraph.aws4.resourceIcon;resIcon=mxgraph.aws4.step_functions;" parent="1" vertex="1">
          <mxGeometry x="386" y="240" width="78" height="78" as="geometry" />
        </mxCell>
        <mxCell id="cLlq7skqqOOSIgNOw3ur-20" style="edgeStyle=orthogonalEdgeStyle;rounded=0;orthogonalLoop=1;jettySize=auto;html=1;" parent="1" source="NO40qMgpg6h3hOK221bb-4" edge="1">
          <mxGeometry relative="1" as="geometry">
            <mxPoint x="380" y="277.5" as="targetPoint" />
          </mxGeometry>
        </mxCell>
        <mxCell id="cLlq7skqqOOSIgNOw3ur-26" value="call or stop" style="edgeLabel;html=1;align=center;verticalAlign=middle;resizable=0;points=[];" parent="cLlq7skqqOOSIgNOw3ur-20" vertex="1" connectable="0">
          <mxGeometry x="-0.2391" y="-1" relative="1" as="geometry">
            <mxPoint y="1" as="offset" />
          </mxGeometry>
        </mxCell>
        <mxCell id="NO40qMgpg6h3hOK221bb-4" value="Event Function Listner" style="sketch=0;points=[[0,0,0],[0.25,0,0],[0.5,0,0],[0.75,0,0],[1,0,0],[0,1,0],[0.25,1,0],[0.5,1,0],[0.75,1,0],[1,1,0],[0,0.25,0],[0,0.5,0],[0,0.75,0],[1,0.25,0],[1,0.5,0],[1,0.75,0]];outlineConnect=0;fontColor=#232F3E;gradientColor=#F78E04;gradientDirection=north;fillColor=#D05C17;strokeColor=#ffffff;dashed=0;verticalLabelPosition=bottom;verticalAlign=top;align=center;html=1;fontSize=12;fontStyle=0;aspect=fixed;shape=mxgraph.aws4.resourceIcon;resIcon=mxgraph.aws4.lambda;" parent="1" vertex="1">
          <mxGeometry x="210" y="238.5" width="78" height="78" as="geometry" />
        </mxCell>
        <mxCell id="cLlq7skqqOOSIgNOw3ur-19" style="edgeStyle=orthogonalEdgeStyle;rounded=0;orthogonalLoop=1;jettySize=auto;html=1;" parent="1" source="cLlq7skqqOOSIgNOw3ur-10" target="NO40qMgpg6h3hOK221bb-4" edge="1">
          <mxGeometry relative="1" as="geometry" />
        </mxCell>
        <mxCell id="cLlq7skqqOOSIgNOw3ur-10" value="DynamoDB" style="outlineConnect=0;dashed=0;verticalLabelPosition=bottom;verticalAlign=top;align=center;html=1;shape=mxgraph.aws3.dynamo_db;fillColor=#2E73B8;gradientColor=none;" parent="1" vertex="1">
          <mxGeometry x="40" y="237" width="72" height="81" as="geometry" />
        </mxCell>
        <mxCell id="cLlq7skqqOOSIgNOw3ur-13" value="3rd party SMS Gateway" style="rounded=0;whiteSpace=wrap;html=1;" parent="1" vertex="1">
          <mxGeometry x="730" y="249" width="120" height="60" as="geometry" />
        </mxCell>
        <mxCell id="cLlq7skqqOOSIgNOw3ur-22" value="Event table" style="text;html=1;strokeColor=none;fillColor=none;align=center;verticalAlign=middle;whiteSpace=wrap;rounded=0;" parent="1" vertex="1">
          <mxGeometry x="40" y="200" width="60" height="30" as="geometry" />
        </mxCell>
        <mxCell id="cLlq7skqqOOSIgNOw3ur-23" value="&lt;a style=&quot;background-color: rgb(255, 255, 255); text-decoration-line: none; font-family: &amp;quot;Amazon Ember&amp;quot;; font-size: 16px; text-align: start;&quot; href=&quot;https://docs.aws.amazon.com/amazondynamodb/latest/developerguide/Streams.html&quot;&gt;Amazon DynamoDB stream&lt;/a&gt;." style="text;html=1;strokeColor=none;fillColor=none;align=center;verticalAlign=middle;whiteSpace=wrap;rounded=0;" parent="1" vertex="1">
          <mxGeometry x="130" y="230" width="60" height="30" as="geometry" />
        </mxCell>
        <mxCell id="cLlq7skqqOOSIgNOw3ur-24" value="Waits until Event date - 24 h" style="text;html=1;strokeColor=none;fillColor=none;align=center;verticalAlign=middle;whiteSpace=wrap;rounded=0;" parent="1" vertex="1">
          <mxGeometry x="395" y="200" width="60" height="30" as="geometry" />
        </mxCell>
        <mxCell id="cLlq7skqqOOSIgNOw3ur-31" value="" style="shape=flexArrow;endArrow=classic;html=1;rounded=0;width=13;endSize=8.39;" parent="1" edge="1">
          <mxGeometry width="50" height="50" relative="1" as="geometry">
            <mxPoint x="-40" y="278.5" as="sourcePoint" />
            <mxPoint x="30" y="276.5" as="targetPoint" />
          </mxGeometry>
        </mxCell>
        <mxCell id="cLlq7skqqOOSIgNOw3ur-32" value="data" style="edgeLabel;html=1;align=center;verticalAlign=middle;resizable=0;points=[];" parent="cLlq7skqqOOSIgNOw3ur-31" vertex="1" connectable="0">
          <mxGeometry x="-0.4294" y="-1" relative="1" as="geometry">
            <mxPoint y="-19" as="offset" />
          </mxGeometry>
        </mxCell>
        <mxCell id="cLlq7skqqOOSIgNOw3ur-33" value="Amazon Simple Notification Service" style="sketch=0;points=[[0,0,0],[0.25,0,0],[0.5,0,0],[0.75,0,0],[1,0,0],[0,1,0],[0.25,1,0],[0.5,1,0],[0.75,1,0],[1,1,0],[0,0.25,0],[0,0.5,0],[0,0.75,0],[1,0.25,0],[1,0.5,0],[1,0.75,0]];outlineConnect=0;fontColor=#232F3E;gradientColor=#FF4F8B;gradientDirection=north;fillColor=#BC1356;strokeColor=#ffffff;dashed=0;verticalLabelPosition=bottom;verticalAlign=top;align=center;html=1;fontSize=12;fontStyle=0;aspect=fixed;shape=mxgraph.aws4.resourceIcon;resIcon=mxgraph.aws4.sns;" parent="1" vertex="1">
          <mxGeometry x="730" y="350" width="78" height="78" as="geometry" />
        </mxCell>
        <mxCell id="cLlq7skqqOOSIgNOw3ur-35" value="&lt;span style=&quot;color: rgb(169, 183, 198); font-family: SFMono-Regular, Menlo, Monaco, Consolas, &amp;quot;Liberation Mono&amp;quot;, &amp;quot;Courier New&amp;quot;, monospace; font-size: 13.6px; font-style: normal; font-variant-ligatures: normal; font-variant-caps: normal; font-weight: 400; letter-spacing: normal; orphans: 2; text-align: left; text-indent: 0px; text-transform: none; widows: 2; word-spacing: 0px; -webkit-text-stroke-width: 0px; background-color: rgb(40, 43, 46); text-decoration-thickness: initial; text-decoration-style: initial; text-decoration-color: initial; float: none; display: inline !important;&quot;&gt;portal.bulkgate.com&lt;/span&gt;" style="text;whiteSpace=wrap;html=1;" parent="1" vertex="1">
          <mxGeometry x="720" y="220" width="180" height="40" as="geometry" />
        </mxCell>
        <mxCell id="cLlq7skqqOOSIgNOw3ur-36" value="" style="sketch=0;points=[[0,0,0],[0.25,0,0],[0.5,0,0],[0.75,0,0],[1,0,0],[0,1,0],[0.25,1,0],[0.5,1,0],[0.75,1,0],[1,1,0],[0,0.25,0],[0,0.5,0],[0,0.75,0],[1,0.25,0],[1,0.5,0],[1,0.75,0]];points=[[0,0,0],[0.25,0,0],[0.5,0,0],[0.75,0,0],[1,0,0],[0,1,0],[0.25,1,0],[0.5,1,0],[0.75,1,0],[1,1,0],[0,0.25,0],[0,0.5,0],[0,0.75,0],[1,0.25,0],[1,0.5,0],[1,0.75,0]];outlineConnect=0;fontColor=#232F3E;gradientColor=#F34482;gradientDirection=north;fillColor=#BC1356;strokeColor=#ffffff;dashed=0;verticalLabelPosition=bottom;verticalAlign=top;align=center;html=1;fontSize=12;fontStyle=0;aspect=fixed;shape=mxgraph.aws4.resourceIcon;resIcon=mxgraph.aws4.systems_manager;" parent="1" vertex="1">
          <mxGeometry x="550" y="80" width="78" height="78" as="geometry" />
        </mxCell>
        <mxCell id="_YVUyql5jrgi10PfuMko-1" value="" style="shape=image;verticalLabelPosition=bottom;labelBackgroundColor=default;verticalAlign=top;aspect=fixed;imageAspect=0;image=data:image/png,iVBORw0KGgoAAAANSUhEUgAAAXkAAAFUCAYAAADBMUzVAAAgAElEQVR4nO3df1hUdd7H/+eGw9CwMi7JuKiMmoIUTN0hNruEfr/+SHHJMvyNfak0NXRTKS1ZV2+2NKhsNStp88cmV9GSP9LMlYzkWh3dZRX27gZaREwblrwdjBxsJsbR+P4xgw4qCjojeHw/rqvrYs75nM/nM3TOaw7vc874s8bGxkaEEEIo0m3tPQEhhBC+IyEvhBAKJiEvhBAKJiEvhBAKJiEvhBAKJiEvhBAKJiEvhBAK1qm9JwBw9D81lFZW4jhzpr2nIoTwMbW/P4aICPr07NHeU7kldIiQL62sJH5ADMFabXtPRQjhY3VWK6biEgn5G6RDlGscZ85IwAtxiwjWauWv9huoQ4S8EEII35CQF0IIBZOQF0IIBbvshdefvPzFlLf97Gde7U8IIUTryJm8EEIomIS8EEIo2FXvkw/t0eeaOj5ec/SathNCCOE9ciYvhBAK1iGeeG0rx/FyDnxtbblBt2ji+wXduAkJIUQHdVOGvLXoTcbOym+5wYItnEiLuXETugxrcR65RfUQnkDqg2HtOhchxK2rVSHf1vr6tdbx2y6KpGfGcM/F34gQHnKDxm/Z4T0vkPEasGCAhLwQot3clGfyF4Tx4BPTSQq9zCpHPVaH68cATRBqz3dqq8d6DkCNNkh9YROPMlBAt2him5V8HFjrHRe2OevAfKgY8ymgSzgDo0K40FM15gr3jw1WrPX1rj6DgjzaCCGE7yn3wqttPxmR9xAReQ/JedUeK6rJneZaHvHfhVgBzlazJW0Q+gGJjB2fzNjxySQOvoeBafmYmzY7nk9a5D1ERC5h/da3mDK4PwMfdLUd++BAYufkYwH48i0M3QeRut293ZtPusaKfJ4dx2/c2xdCCLjpQ76eQwf3Y9rn8V+V66yZ4DiGT3T9aNpT4gpggOMlFOxx/Zj66BC0ODj45tOk5lXDgBRWvJ/L5vdfYeoAMOc9zYqd9ReNmUd6xlaCfrOIjN//luQBrqWWTTkUHAMIImJwDPqm5r1jiB8cR/zgMIL8fPRrEEKIFtzk5Zr9rJy5n5Wei85fdA1i+Ljfost7C8v2/RzIfITEYLCWFbMDQPdbhhvVUF/I5tfKgTgyV7xIcj9XN/q6QtYX55O7p5iMUUPwLPvPe7eA9PtdPzuiHeROWgPsx/IdMCCFzX+JZmX3JDIBxv+eze18EVgIceu6yUP+MhdePS66qmPjSNa9xUpLHqbiRSQ+CAd25wBgmDGKeDVQVs56V2sO71pD9i7Xtqcq3CWeunocF416u8cZuTpQvgdfCNFx3eQhf4ULrwDqOB6aEcXKpeWsLyojYzCYNgBEMfb/ibqocSHrlxZeZogQJMaFEDermzzkr87w/4zBsLSc0k0llI6AzQBDU0hsyvhOoAMspPBBxYsMl2eohBAKcpNfeG2FqASmDgUsO1mxaicWYPjouAsXRiNjSNYB5JC7s/rS7c9ey6Bq1E0fIt9ZLyn3CCHEjdKqM/kb93BTW+WTOqA3qRcvbvbEaxjDxyXA7nwKdgNMJNnz4SR1HA/NimFlRgk70gYx8P049IHudZbDmEb/6Rqeng0jPBYoB9Y/iX53DLHomLb5nZZLS0II4QNXDXklfJukbvAYksknF+DxBOKDm683zHiPgk6LSV21jcPF+y/cG6/rR1LYtTw9G8TwWX8mtep5svfVwrESDuomMktuoRRC3GA/a2y89J+ButH/MtTG/M8YnzDSq2Nem6anWuHip2Gvma0e6zkv9SWEQnScY175FH/htW18EMaBQXJ3jhCi3Vw25OXfZBVCCGVQ/t01QghxC5OQF0IIBZOQF0IIBZOQF0IIBZOQF0IIBZOQF0IIBZOQF0IIBesQIa/296fOam3vaQghboA6qxW1v397T+OW0SGeeDVERGAqLsFx5kx7T0UI4WNqf38MERHtPY1bxmW/u0YIIYQydIhyjRBCCN+QkBdCCAWTkBdCCAWTkBdCCAWTkBdCCAWTkBdCCAWTkBdCCAWTkBdCCAWTkBdCCAXrVFtX195zEEII4SPytQZCCKFgUq4RQggFk5AXQggFk5AXQggFk5AXQggFk5AXQggFk5AXQggFk5AXQggFk5AXQggFk5AXQggFk5AXQggFk5AXQggFk5AXQggFk5AXQggFk5AXQggFk5AXQggFk5AXQggFk5AXQggFk5AXQggFu8EhX41p9XIyN5XjuFrTY4Vkr15D9ufVLTSo52DeGrJXF2L28iyFEEIpfBDyJazs3ptuF/+3ogQs5Xyw9C1WLi2k8mrdfFdOxtJlZJTVttDAgXn3MjKWlmPx8jsQouOoZcvMyxxPnseVEFfQyXddD2Hq7+PQN70MDwFdDCuLC3hW3Y9w3w0shIKo0Q9dRMa9gLWMzW9uozTqEeY9Gk0XcB1XQlyBD0N+AGNnTSe22bJq9n5cyOE76tFNjEELUFfC+tfeZcfRegiNY+rs6ST2U1++y/pycjPfZPPRevTGR9CdbWnseg7m5XHg7AASH7BS8Kc8dhytRz94PhmzXONay7eR+/5OCo7WA0FEjJjBwqmudebP17DjcD+GP6pm76qc89umP9rAp+7X2ujpZPx+iPtDzMHhnWtYvWE/5ov6EuL6BBE70X0cHd/GgTe3UXrnUKbNegQdYP1nHtmr69EaJ5I8IIjz+/53QQycNAo+z+PA2Sjie1eRm5NPpTWM4c8uIvX+IHf/su8qnQ9r8g2cqq/HWl+Ptb6pAl9L2dJlZOyudtXkbSVkTkxixbf9mPL4RGLrNjB13JuYLluwryZ3ViJpG8rRRg8hwrafHcUtje0u5SxIInHqVsxhYWjN+8ldOpM/f+lqYd6XR2XgAIYPHkJsqIX1v08i6/N6ACxly8hY+iRJU/Iwh/VDb9tP7tIkhk1Zw+HgfujPHWbH6ifJdrc3b5pL/LTdMCKFqSO0/O/vk5iV19K1BCG8R6sD09JlpO0scx1TjjI+TVtGxpcB6IObjoO5pH5Qjf7eKLTmPDLGPEF2uWt72XeVz4dn8m8xJfIt98/z2fHtby86qwfr/q2sLI9jxZr5JPUGdNWsHL2BgxXzib+4u/J81u8G3YI3WJ8WA9TSrXobqduvNIcE/vDBGySFgqV7NTtm5YP77N8wI5cVTc2qdRzOK+GErfmny7TX3mDeALB0ryK3OJ+Bc14lc0wIFAeQO3q5u305O/6UD7NyyZoah5oBOIrySN1XjmViGLq2/tqEaIveo0ie+AIFm/ZzYEEc8WUlbAaSxwxBd/72hgE8u3gRSaGQatRiGL2c1bvLSY1C9t1bgA9D/rd8UDGDgQCoL/vnn/loMVBOWlxv0s4vvXyN0fptNaVAYp8wr8zOUbWNzNfyKDjcQLc76qkE91zbqN6CuRwoT0a/2mP5OK9MU4irCGL4uN+iy8vjYNl8tMU7sTCdsUODgMvctNA9jIHAjhMWHPXIvnsL8GHIB9AlKOiKtb1uujBATcb290j2uBIbEARcVIrRBrvOK6y2huufmmM/fxw3l2zjK5i2jkL37U7Shr5wbX0FaekG8Pg7lKbHcf5qgt+V37sQ3qKOjSNZ9xafFm0jaE85umcWMbCFy1o4GrAC3KFFHYTsu7eAdn0YShcZRywlrN6wlcNWACvm0ipO1AN3hLhKNhXFFFTVQ3gUU3Vgem0564urOLxvNwe+vsaBrfWYLUCIDp1GjaO66jrute9H9NQQ2PAu6/ZZcAAOSxUHjrV066cQXqaO46EZUZS+u5QVe0KYNsIjsAGo5n/3lXC4qoTcP+VgIoR590ch++6toX2feI1MIXvDdCL2LCHReA8RkYMYviCPygagdxxTxoXA9mVM2V4FQUNYuOq3xLON9NHDSVpZBXde47i6IUxbEAPrnyRCH0/qPseFWz3bLIjh6e+RObqWldOGY4i8B8PgmWTsk7v3xY1j+E0Kwy21WKJmMGzApetLtz5P0uAk0jbUk7j0PZ59QI3su7eGnzU2Nja29yTA4b4DR402qKW/Mz3b0op2rRi1vp4GvyC0gdfdlYutHus5CNAEofZhIUyIS9Tlkxb9NKUZOyiYEeVeWMuWmQNJ3Z5AdvE7JAXXYyUI7eUOHdl3FauD/O9sTbh7tvXSqEFBXP9HhYdAqWWKG6y+hNz3d3OgMI9cEsgeHdVyW/UV9k/ZdxWrg4S8EOLaNGD5sgSz31Aytrpuk7yg6WnZIPTe+mtV3HQ6SLlGCCGEL8hXDQshhIJJyAshhIJJyAshhIJJyAshhIJJyAshhIJJyAshhIJJyAshhIL55GGoBocD248/8tNPP/mieyFuarfddhuBt99OgLp1z1ufqq/H8t13nD13zsczEzeDTn5+6O64gy5BrXv03ychb/vxR4J+/nNUneSBWiEu5jx7lvoffmh1yFu++46w0FBuDwjw8czEzeDHhgaqjx9vdcj7pFzz008/ScAL0QJVp05t+iv37LlzEvDivNsDAtr0V53U5IUQQsEk5IUQQsEk5IUQQsEk5IUQQsEk5IUQQsEk5IUQQsEk5IW45f1Eg81Ggzy7qEgd4mZ2S1UV6t790F5uNvUl5L5vJX7WEPQ3fGZC3Gy+Znf+YYgYydA7L7z+zqOF3+1d0Pe7h9get7uXHGP/Xs9thJK0f8jX5ZM5+GlY97+sGHWZJ7hs1RQsrSZCQl6Ia3aHO8DPOU5x9Kv/4V+lRZxTDcaokz/mb6TP9+3n1OnTV2wTEhzM/3v/QK+N2f7/h4MTyKr4X7IuF/BCCK/yU3eh331GIn7uwFx1hIb2ntAt5szZs1dt43Q6vTpm+4c81ex9P4+9x5peOzi88y3SJiUzNT2Hgq+t7Tk5IRTodkK1avjRhqW9p3KLud8QfdU2Aw0Gr47ZAUK+lrKlyyhzFw0t258nabWFQYvfYMWsaCyf53OgfScohOLoAm8HpwMbAJ0JVN+GX/sXbxUvJDiY8F69Wlx/d7++dAnq7NUxO0DIe6qm4INtjF2wiKSoELRhMSTPnIj3qlNCCACL7UdQqQkEwA9QERDYvnO6VUT164fm9tsvWd6lc2ei+vXz+ngdLORrseyBLoGt+wpWIcS1+JHjVgcEBtEDgC7ce/9A7v1FO0/rFqFSdbps2cbbZZomHSzk1aCDH+XfRhDCJ5w/nqCyuIjKH9To7+yNH8BP9Rw9fIhDJ+VG+Rvl4rKNL8o0TTpYFa4fsRNDSN1VyKz7h6AFrNUW5NKrENfnu8rP2Fjp+tnv9mDuuv8+ooPd53g/HOfo/9Vyzu8U9+qC22+St5iofv2oras7/7OvdLCQVxM/509Me2ImEd0D0EeqiR0aRwC69p6YEDeJOxmacOcVXl9G0F2MHBYOqg4WBwqnUnXiwQfifD7OzxobGxu93WltXR0hwdd3RuCor4egIKQ6L5SoLcfIV1VV3O3DMz1x82nLPtFhP7rVrfz3C4UQQrSsg114FUII4U0S8kIIoWAS8kIIoWAS8kIIoWAS8kIIoWAS8kIIoWA+CfnbbrsNZyu+N1mIW5Hz7Fluu631h14nPz9+bJBvfhcuPzY00MnPr9XtfXKffODtt1P/ww/89JN8F4YQF7vtttsIvMy3ELZEd8cdVB8/ztlz8qVOwvWhr7vjjla398kTr0IIIToGqckLIYSCScgLIYSCScgLIYSCScgLIYSCScgLIYSCScgLIYSCScgLIYSCScgLIYSCScgLIYSC+eRrDY7+p4bSykocZ874onshbmpqf38MERH06dmjVe3leBKe2rr/+CTkSysriR8QQ7BW64vuhbip1VmtmIpLWn2QyvEkPLV1//FJucZx5ozskEK0IFirbdNZuRxPwlNb9x+pyQshhIJJyAshhIJJyAshhIJJyAshhIJJyAshhIJJyAshhIJJyAshWsVpt2I7bcfZ0f+p2dojHLU6fdCxE+dpuw/69S2fPAwlhGhvR9jyXBYfMoKVr4/H9diMld1Z88np9RzvTY50tzOT//Iqtvd5nLcnG9zLjpOfsYTt/7WQt8f0hROFLM/Kpai2qW8VMTNeJH1wV6CEdY9lk8+FdV3uNjB58uMM7aNp3VTrKig5HUpMr1Y8C1CWzfisksuv6zeGtzOMlK3LIpvxrFk4gi6tm0Hr1O4iI62IQSteJCHEmx37VgcOeQfm4ioCoqPQqa+jl+oSKjtFYQi9jk6EuNkcMvGJSk+E1cQXh8aT0h9AS3RMKLbPSqmZHOkK/rpS9n5lxfJdBTWTDa5lpyv4V5UG42N9ASumnFzK7nqK95YbCfQDztk5ZVc1Gy5h4RqmRQPOk1TuyCbjxdc5k7WYhG5Xn6rlYC6Z345h4xMxV28cncrG993b7VrC7P1G3s5IROfRZOhzb2BEQ+DVe7vhFvzuRY6Zq6/YJuqu/mQsmu+1MTtwuaacLaPfxFR3fb2UbkpiRVG9d6YkxE2i8mAJXQY9zqyRKnYfLD2/XHe3Ad2JIxw97XrtPHyEyl8biK+roLTpWPumgtLOMfyqH4AVSy3owvSugAfw09Clc/OQP0/VlYgxzzE31kzOx0W4iiZWKnflkv3HJcx+bj5/eHsjJXUATixf7SK/yApf7WJdzlrWmczujpxYSnLJXDyf2Yuz+LDkZKvfe01RLn8pcvdzupTtHxVRU1vElrdfYvZzS3hj1xFspyvY/UEWzz83nz+sM2HxKEHZju4i++X5zH7uJbL3VGDzYnnKZr96ucdm825JqEOEvGVfDukzkxk7cwnZn1fjqKuiYOtODlDN5++tIXt1HgfrwXF8P7mrl5E2yd12ZxUOdx/W4jzW76vGWpHP+tV5HKyv5/DubXxaDObdG8hevYbcYgl7cQtoKGJngYZh9+npEWsksKCQogb3up4GjJ2PUPyVK36Pfn2EiPBEfhVr5tBh17LK0gowGogAQE/0fRqOfrSK7F0lWFpV6tbQv78e52EzFgCsfI+eYZOe49WFqQzyM5G5rhAbAFp+rrJDsJ77og3cF+Yq2VgKspi32c7I1MW8mhqP5b103jjYujr791VF5Fe5PxQazPzjk7W8sdNK9KNz+N24rpTlZPH8OyVgTGb+nHj8TRtY93crAM6v1jJvRSl9Jizk1YXj6fa311mUb77CaG0ze+aTXmnTFu0f8uVrSM6oZtjv32H9SykM1EIDEOCnpgEt+ugoDPdGo1dDw7cOtMaJpL/7Ditm9ON/0+eyvtzVjaO6kPSsJWRsKDsf/KjVqM+CNiwaw71RGLpLyUYon7OsiKJuMcR0B3oaSehWyj/KmgIykl8N1lB0qAI4zqEy6H9nX/qEh/Kvr4+4l9kx3mU431/E5ExWzojEsm0ts5+cxby3d5z/S6AlXX7ZFU6c5HsA9BhHxBPRXUtgSF+GxkeCzY4NFbq7jUT8EvhlJDExRndd/gimnWaGTX6KmO5aArvHM26olqKvKq7xNxLK0FEjiOiupcev4/kVEDMqmaH99Oh6GbmvF/xgtwNOSgqL0D2UTEK/rgSGRDJ6hIGaklJOAQR3pScafh5wjdPAVYr5zchhLa4fnzSa3r3Crn2Ay2j/mnyDgxN36OiiDUIbFESsu7gWHxvOeqroHxtHfKi77YAhJDZtN2AUDxqXYG7w6Kv7GNIzH7lQn3tgAP1z4HD4AOIfuImulAhxzZyUFJUSeGdfTpQUcQKghwpToYmnYocQCEQYIuHPFdSc7krZt5GM7gM6+sLfKrCc1lL2TV8G3e1ZjtHQ49eP89+/fhzniSJyVq3l+WV2VmY1XdC91Kn/OwndIvkFAHaO7tlAzrYjWACdRgV++iu8Byvfn4C96+ZT0nQaarfiP7iFEpHXnOT7Wjj61evM/sy9qMEOvQ2oAPxU+KOlS+frG2XC2Ic5UPw/1J78rtny3vowJiQ9fH2dX0b7h/yAR1gRvYTUyBwiHp9OaloK8boW2taVsP61d9lxtB60IQR8DQNv6GSF6OCsheT/XUPPIcf5V9lx1zJNKF2KTBRZhzBUC/QzYDyxi5K/h1J6dyRz/IA+kRi/KaTk7xpK7jUyp4UgU3UzMm1yCflZrrP0y4e8nUOHzKgMia71hzbyhw8hNSsTo1aF8+Aqkj+92hvR8vBzy0nqeS2/hOtjTMlkrvFyHygGUrIjud6PmkCNhtkznyRj2fJmy71dpmnS/uUawhj++z9z4OgW0v6riswRSyi4bOm8nh0vJWH6r0Xk/iWXzW/PJ/FKJwNC3IJOfVlEWb8RpE57imkp7v+mPc7DPc18UeQO/QADA+49Tv5nR+gZHem6C8UvEsO9R8j5qJSIeyM97kxxYrN6XAg8Z6XkYAX07Oo+S79Ig5myj17njYN6Uka57pax1R7HpulKT63K1Z/9otr6bcApu7tGD2AgOt7KzoKi5hc9fX5/fiiGgV0p2rWDmmbjuudrN7N3ZyGVXrguenHZxhdlmibtfyZ/1j0LdQixE8cQn/YmljpAo0ZNPafO/5+vxlwG+kd1qAHO1dNga6FPD2o1WK1WQMo1Qvn2/tVMxNCnaP7HsB7j0FBydpuoGTGeHmiJNuqxvHuS0eFNtVAtfcK1OL+EAXeHemxrpejdJWR/6USl1YDVDiGRzF3YvFSTnzXdfa+8ii53G5n/ajIx7kMuMGYECZuzWTC7iF8AfYz6ZvOLjhuCbtkGnnhsA6oRc8hNMWBMmcPXmdk8MTMXnVbFGaudO1Oa7s33nR4Jc5j19esseGoXvwjWgN2ObXAq7002wLcmcj4xMSg6kYi7r3+sCWMf5qt/V7p+9kGZ5rxGH/hoZ36r257Y9Xxj7K8fbUyaOLnxN7+ObUxaVdzY0NjY2Nhobfx8UXyjLrRXoy50TuOnJxobv/nk+cbYe4c1Jk18tPE3M95tXDG/V+OKg+5+Pp7ZqJuxtfHERf2f+mJxY2xor0ZdaK/Gpz+xeOkdCnF92nKMtKWtz5yxNf5Qf6rxB9uZa+2g8Uy9rfHM2TZu9uOpxh/qT7V9u+vV9H4vfrtnr/X9e1db9omfNTY2Nnr7g2Nj/meMTxjZ+g3OOrDaHaAOQnu1G2Ac9VjPBqHtiE86CNFKbTlG2nw8CcVryz7R/uUagE5qtEGtvL2xNR8EQgghgA5x4VUIIYSvSMgLIYSCScgLIYSCScgLIYSCScgLIYSCScgLIYSC+STk1f7+1FmtvuhaiJtendWK2t+/1e3leBKe2rr/+OQ+eUNEBKbiEhxnzviieyFuamp/fwwREa1uL8eT8NTW/ccnT7wKIYToGKQmL4QQCiYhL4QQCiYhL4QQCiYhL4QQCiYhL4QQCiYhL4QQCiYhL4QQCiYhL4QQCiYhL4QQCuaTrzU4+p8aSisr5TFsIS6j6bH0Pj17tKq9HE/CU1v3H5+EfGllJfEDYgjWan3RvRA3tTqrFVNxSasPUjmehKe27j8+Kdc4zpyRHVKIFgRrtW06K5fjSXhq6/4jNXkhhFAwCXkhhFAwCXkhhFAwCXkhhFAwCXkhhFAwCXkhhFAwCXkhRKs47VZsp+04z7X3TK6i9ghHrU4fdOzEedrug359yycPQ7WfagpW76fLYxOJDWrvuQjRno6w5bksPmQEK18fj+uxGSu7s+aT0+s53psc6W5nJv/lVWzv8zhvTza4lx0nP2MJ2/9rIW+P6QsnClmelUtRbVPfKmJmvEj64K5ACeseyyafC+u63G1g8uTHGdpH07qp1lVQcjqUmF6teBagLJvxWSWXX9dvDG9nGClbl0U241mzcARdWjeD1qndRUZaEYNWvEhCiDc79i2FhXwtZUsL0T8qIS9ucYdMfKLSE2E18cWh8aT0B9ASHROK7bNSaiZHuoK/rpS9X1mxfFdBzWSDa9npCv5VpcH4WF/Aiiknl7K7nuK95UYC/YBzdk7ZVc2GS1i4hmnRgPMklTuyyXjxdc5kLSah29WnajmYS+a3Y9j4RMzVG0ensvF993a7ljB7v5G3MxLReTQZ+twbGNEQePXebrgFv3uRY+bqK7aJuqs/GYvme21MhYW8EAKg8mAJXQY9xyznKhYdLCWlv+ssXXe3AV3OEY6ehh6dwXn4CJW/NhB/sILSOugRDHxTQWnnGMb2A7BiqQVdtN4V8AB+Grp0bmFgVVcixjzH3Jq5vPFxEcOeNqLCSuWuHXxRVkFZjR3dnUZGTx5PTLATy1eF5BdZ4fQu1uWUwJ0jmBavB5xYSjay7uMS/kNX4h99iskxXVv13muKcsnH3c/pUrbvtBMzBIo+2sUXXzuJGPk4T/3aSdEnW8kvOUng3WNIfSIenfv92Y7uIufDXZR9pyX6kfGkPBB54b1fJ5v96uUem827JaGOUZM/W4tp/RKmTkpmanoOJkvTimoKVm+j1FJNQd4y0iYlMzU9j1LbhU2t/8whfWYyY9PeYsuXFn5sj/kL0ZE0FLGzQMOw+/T0iDUSWFBIUYN7XU8Dxs5HKP7KVbM++vURIsIT+VWsmUOHXcsqSyvAaCACAD3R92k4+tEqsneVYGlVqVtD//56nIfNuA5lK9+jZ9ik53h1YSqD/ExkrivEdRhr+bnKDsF67os2cF+Yq2RjKchi3mY7I1MX82pqPJb30nnjYOvq7N9XFZFfddL9uzDzj0/W8sZOK9GPzuF347pSlpPF8++UgDGZ+XPi8TdtYN3frQA4v1rLvBWl9JmwkFcXjqfb315nUb65VeO2xuyZT3qlTVt0gJCvZcezSWTbEsh49x0yHrSQOWI5JodrXdnSuUxdnI8jOoWM16YTXvYCaR+UA+D48i2SZxTSLeUV1qcnELRvK1va9b0I0f6cZUUUdYshpjvQ00hCt1L+UdYUkJH8arCGokMVwHEOlUH/O/vSJzyUf319xL3MjvEuw/n+IiZnsnJGJJZta5n95Czmvb2Do6evPIcuv+wKJ07yPQB6jCPiieiuJTCkL0PjI8Fmx4YK3d1GIn4J/DKSmBijuy5/BNNOM8MmP0VMdy2B3eMZN1RL0VcV1/gbCWXoqBFEdG2XqkEAAB2pSURBVNfS49fx/AqIGZXM0H56dL2M3NcLfrDbASclhUXoHkomoV9XAkMiGT3CQE1JKacAgrvSEw0/D7jGaeAqxfxm5LAW149PGk3vXmHXPsBltH+55thu1u+ZSPqqOPQAQycyJTKJgxXzib/X1WTKjOkkRgGEMWVSHCstDsDBge3LCViwl3kPuH4pw2fNoGzpu+3zPoToEJyUFJUSeGdfTpQUcQKghwpToYmnYocQCEQYIuHPFdSc7krZt5GM7gM6+sLfKrCc1lL2TV8G3e1Zc9fQ49eP89+/fhzniSJyVq3l+WV2VmY1XdC91Kn/OwndIvkFAHaO7tlAzrYjWACdRgV++iu8Byvfn4C96+ZT0nQaarfiP1h1hW284STf18LRr15n9mfuRQ126G1ABeCnwh9ty6WqVpow9mEOFP8PtSe/a7a8tz6MCUkPX1/nl9H+If9dLSa2kjlp//lFJyp0TGlhZgGBTVdU67FUgzb6Oj5WhVAaayH5f9fQc8hx/lV23LVME0qXIhNF1iEM1QL9DBhP7KLk76GU3h3JHD+gTyTGbwop+buGknuNzGkhyFTdjEybXEJ+luss/fIhb+fQITMqQ6Jr/aGN/OFDSM3KxKhV4Ty4iuRPr/ZGtDz83HKSel7LL+H6GFMymWu83AeKgZTsSK73oyZQo2H2zCfJWLa82XJvl2matH/IA0ROZ8VfJnKlz/bLUauBsw1XbSfEreLUl0WU9RvB29M87zgxozv8El8UHWfoiFAIMDDg3g18+JmdnsPHuO5C8YvEcO9aVn8EERPGe9yZ4sRmdRKodd8Oec5KycEK6BnvPku/SIOZsk828MZBPSlZrrtlbLXHsWn60lOrcvVnv6i2fhtQZ8cG7nENRMdbWVtQxMj/z3jhouc5wEsXQC8vFMPAruTs2kFN7Bh6nB/XCX4qsJvZu7OCng8lEtHKu0Nb0lS2+etnXwC+KdM0af+Qj45hXsVytvxzFPPub8t9jyEYHhjC1K2FHB6TQngncByv5hto84eFEEqx969mIoY+1eyWQtBjHBpKzm4TNSPG0wMt0UY9lndPMjo81N1GS59wLc4vYcDdoR7bWil6dwnZXzpRaTVgtUNIJHMXNi/V5GdNd98rr6LL3Ubmv5pMjPte8sCYESRszmbB7CJ+AfQx6pvNLzpuCLplG3jisQ2oRswhN8WAMWUOX2dm88TMXHRaFWesdu5Mabo333d6JMxh1tevs+CpXfwiWAN2O7bBqbw32QDfmsj5xMSg6EQi7r7+sSaMfZiv/l3p+tkHZZomP2tsbGz0dqcb8z9jfMLIVrd3lOeQOn0JpXfEoQ9swGwOJ3PrKwzXlbCyexJsP8a8Aa62lq1PYzg6gxNpMUA1O9KSmZrXgL63lojfDCFoUzUP7nyHpNArDilEu2rLMdLW48knnHZsDU7w0xCouZaChRPnaSdoNKjacjbeYMXmBH+Ntm3bXa+m9xugJdDz7Tad1beztuwT7X8mD6ijUli/PwVHfT0NqNEGqd1rYpj37bFmbXVj3nFdTAIgjMQVezmxtB6HOgh1J+D3N27eQtwyVJrmYdf2DlB1voYOArQEtsdlt5bebwcI+LbqECHfRB0UhPrqzS4VeI3bCSGEwnWA++SFEEL4ioS8EEIomIS8EEIomIS8EEIomIS8EEIomIS8EEIomE9CXu3vT53V6ouuhbjp1VmtqP39W91ejifhqa37j0/ukzdERGAqLsFx5owvuhfipqb298cQEdHq9nI8CU9t3X988rUGQgghOgapyQshhIJJyAshhIJJyAshhIJJyAshhIJJyAshhIJJyAshhIJJyAshhIJJyAshhIJJyAshhIL55GsNjv6nhtLKSnkMW4jLaHosvU/PHq1qL8eT8NTW/ccnIV9aWUn8gBiCtVpfdC/ETa3OasVUXNLqg1SOJ+GprfuPT8o1jjNnZIcUogXBWm2bzsrleBKe2rr/SE1eCCEUTEJeCCEUTEJeCCEUTEJeCCEUTEJeCCEUTEJeCCEUTEJeCCU6Z8d22oqtwXmN21up+eY4znPemY7TbvdaX6JtfPIwlBCivdip3JRFxtbjNMW7qnM8GdmPE+FeX/PVEVR3GtAFXKGbqq0seKmIhMWrSel/vXMqIWdGNixcw7To6+1LtJWEvBBKUrWRl7fC5FdXM7q7CgCn1cqFR2cqyH95Kz1WGEi4Usj3T2ZD9nhUnX0831vMgt+9yDFz9RXbRN3Vn4xF8702poS8EAriPGXFRig9uqnOL1NptagArEcwFZkoxcrXH6+lJqArxkfHEE0p23faMY7SUrbThC16PKPDzOR/fIQ+j44hujPUmNZSGjIGQ10hmwqLqPyxK8Mem0NSf41rkHNWju7LJWfbEbjTyOiReo4d0jAy0UBgu/wmOiab3X71Nrart2mLDlCTr6Zg9TZKLdUU5C0jbVIyU9PzKLW5VztqMeWtISMtmbGTniZ9dT6H3eusxXms31eNZV+ea/3MZWypqsdakU92+tOMnfQCK/d4fGqercW0fglTJyUzNT0Hk+WGv1khfEoVbiBGVUL2K7mYvrFesl6jUuFERc9wA/dF90WnAhrM/OOTXF5+cyuHGtwNG8z8Y1cJ/3G//r6qiHWvreILp4Fxz8xhco/jfLhyI5Xu5jX5WTy/ycmgOQtJfUhPzae5fHjAjO2SGdzaZs980itt2qIDhHwtZUvnMnVxPo7oFDJem0542QukfVDuWu2opiFoAFPS32H9azMIr1hMqnudo7qQ9NlLyK2PZuofXiG1dzGp454mYz/Ez3qJrHFq1k1aQ0G9a5wdzyaRbUsg4913yHjQQuaI5Zgc7fbGhfA+7RDSX5/Dw9pS1mbMJzl1CTklJ93r+hITracLGvpEG4mJ8azLa0mYvpDUlKcYfXcL35MTP4aUwZH06Kwn/qF4dKft7jJQBV98epL4KakM7dUVXS8jo4dHemwYiq6XBtWVykO3iKi7+vObkcNaXD8+aTS9e4V5dcwOEPIuU2ZMJzEqDG3YEKZMiqPU5k7foBiGj4ohXBeENiyGh4YOuLAOwDiG5FFR6IPCGD5iKFjimDI1AUNYCOEPDGAgFuptwLHdrN8zkbRn4tAHBaEfOpEpkXkcrGiXtyuE7wQbGD07k/fWLifjUS17/5jOGwev8S6blqg1dDn/wo7zNPw8UNVic5VKi06+Yw2ACWMfJqTrHZcs760PY0LSw14fr0PW5AMCgzxe1XNw/XJW76rCShA6dTX81zV0+l0tJraSOWn/+UUnKnRM6ZC/ASG8wE9LxIhkxu5fwt66k0CojwZSgQp+sDldP18ilGHPLwS1j4a/yQRqNMye+SQZy5Y3W+7tMk2TDh9x1p3LSCyK4cCGF9GrwfzB02y51lp65HRW/GUieq/OUIgOxG7llEpLl6as/baIvd+A7qGurtd+AHa+/wEI8dagBgaN0LBo81oGhSXTX3WSIlMFNB1p505SWrALpzEZYzdvjXlzayrb/PWzLwDflGmadPiQN1eXQdgjdFMDOLA66q+to+gY5lUsZ8s/RzHv/qCrtxfiZlS9lXlZJmyo6BLg5NRpFX3GzOGpWHfqB8czKnYHbyyezhb0TFu1mAQvDBsxYTHpP2Wz7vWX4A4D0+7vC//nXmkv5bOPCvlBMwJjt65eGE0ZJox9mK/+7bp07YsyTZMOH/KGUc+QPHEuw74MR9sQxENDr/HTTh3Hsx+MIXX6PQy8Iw59YANmcziZW19huM67cxai3fR/nPf+nIzTfVHUX6NF5efZQEv8vNXEN9sokWXvJzbvJ6T5sugn1rDxkvUer/26EjNlMTFTXC9P7XkJ/MAfoPMQ0jfEg1/LNftbUaBGw2svL/H5OD9rbGxs9HanG/M/Y3zCSC/26MBaD9og7xT1HPX1NKD2Wn9CtFVbjhHvH0/eZ6sy8S/03NdNi+2EiZxVW3FOWE56vFxt9YW27BMd/kzeRY3WixUWdVCQXAMSwov8A5x8/dFaPqyxg6Yr8U9kMjlGAr4juElCXgjRkal6DiHl2SGktPdExCU6zH3yQgghvE9CXgghFExCXgghFExCXgghFExCXgghFMwnIa/296fOeunXnAohoM5qRe3v3+r2cjwJT23df3xyC6UhIgJTcQmOM2eu3liIW4za3x9DRESr28vxJDy1df/xyROvQgghOgapyQshhIJJyAshhIJJyAshhIJJyAshhIJJyAshhIJJyAshhIJJyAshhIJJyAshhIJJyAshhIL55GsNjv6nhtLKSnkMW4jLaHosvU/PHq1qL8eT8NTW/ccnIV9aWUn8gBiCtfJvPApxsTqrFVNxSasPUjmehKe27j8+Kdc4zpyRHVKIFgRrtW06K5fjSXhq6/4jNXkhhFAwCXkhhFAwCXkhhFAwCXkhhFAwCXkhhFAwCXkhhFAwCXkhlOicHdtpK7YG5zVub6Xmm+M4z3lnOk673Wt9ibbp+CFfX0Lu6jwO1rf3RIS4Gdip3LSE5Mfn8kTqfJ54ahbJqRuo9Fhf81UploardFO1lQWLXuLDKm/MqYScGXPJ+bc3+hJt5ZMnXr3KVk3B0kICHp1IbFB7T0aIDq5qIy9vhcmvrmZ0dxUATquVC4/OVJD/8lZ6rDCQEHCFfvonsyF7PKrOPp7vLWbB717kmLn6im2i7upPxqL5Xhuz44e8EKLVnKes2AilRzfV+WUqrRYVgPUIpiITpVj5+uO11AR0xfjoGKIpZftOO8ZRWsp2mrBFj2d0mJn8j4/Q59ExRHeGGtNaSkPGYKgrZFNhEZU/dmXYY3NI6q9xDXLOytF9ueRsOwJ3Ghk9Us+xQxpGJhoIbJffRMdks9uv3sZ29TZt0QHKNdUUrN5G6bH95C59gbGTXiBjUznWi1o1fFvCltVLmDopmbQV+zF7rLPsyyMjLZmxk15g5c4qj23dfVuqKchbRtqkZKam51Fqu7CttSKflZfdVoibjyrcQIyqhOxXcjF9c+nerFGpcKKiZ7iB+6L7olMBDWb+8UkuL7+5lUNNZZwGM//YVcJ/3K+/rypi3Wur+MJpYNwzc5jc4zgfrtx4vgxUk5/F85ucDJqzkNSH9NR8msuHB8zYLpnBrW32zCe90qYtOkDI11K2dC4L11ajnzSf7KVDUG9IJPndco82xWzefhjdiGfIWvwIDRuSyf7cVaS3bJ/LsKxyIh57hfWvTSRo52SS3yzH4dH31MX5OKJTyHhtOuFlL5D2gatvx5dvkbxgP/qn3mD9qhR0OyczK+/Kf0oJ0aFph5D++hwe1payNmM+yalLyCk56V7Xl5hoPV3Q0CfaSEyMAd35ko2WhOkLSU15itF3t/A9OfFjSBkcSY/OeuIfikd32u4uA1XwxacniZ+SytBeXdH1MjJ6eKTHhqHoemlQXak8dIuIuqs/vxk5rMX145NG07tXmFfH7AAh7/LgoxOJ7xeCrl8Czy6YzsHVhZSeXzuAKTPd66PGMGUcnLA5gGoKPtjGQ3PmkzwgDG1YDFOfnU9AZh57PS7UTpkxncSoMLRhQ5gyKY5SmwNwcGD7crpNe4akqBC0uijGjhtDwb5yLDf83QvhRcEGRs/O5L21y8l4VMveP6bzxsFrvMumJWoNXc6/sOM8DT8PVLXYXKXSopPvWANgwtiHCel6xyXLe+vDmJD0sNfH6zAh70ndJ5pEC+6z8UvWEnC+yFeLZQ90C/a4Its7nFiKOdzCCXlAYFPbeizVULpuLmMnJTN2UjLJr+VDoBq1t96IEO3JT0vEiGTG9gNL3UkfDqQCFfxga+mDJJRhzy9kWLAPp3ATCdRoLluS8XaZpknHvPBaV82BVjVUgw5+9Lz/1mLBTBj9W7lDJS74MxmDJdaFQtitnFJp6dJ0Uv1tEXu/Ad1DXV2v/QDsfP8DEOKtQQ0MGqFh0ea1DApLpr/qJEWmCkDvWn3uJKUFu3AakzF289aYN7emss1fP/sC8E2ZpkmHOZM/YWmqr9Rj2rUTnonBcNWt+hE7MYQv/rb//AVT856tbBkQhyH0atuGEDt0CJs35WM+67H4bIsbCNHxVW9l3ozpjH9yFtNTpzP++V04E+fwVKw79YPjGRVrZ8vi6Yx/7CXy67wzbMSExaTfe5J1r7/E82tMdOnX98JKeymffVTIJ6W+/Gvi5jNh7MP01of5rEzTpMOcyZu3Ps/A9HKgGqIX8ec/xbWibKImfs57JD/7NBFxIcTfUUtlQAIfrE4hvBVj6ie+yIp/v0Bi7JtEROrAUs2JSe9gmhF13e9HiHbR/3He+3MyTvdFUX+NFpWfZwMt8fNWE99so0SWvZ/YvJ+Q5suin1jDxkvWe7z260rMlMXETHG9PLXnJfADf4DOQ0jfEA9+Ldfsb0WBGg2vvbzE5+N0mJAfOOMdPnjbgdUO2iCPeA99hPXfPtKsbWzaMdY3vQiMYuqf9jKlvp4G1M23JYZ53x5rtq1uzDucOP8qjOEZuZSm12N1AOogtFK5ETc9FarO7nvjbxBblYl/oee+blpsJ0zkbDITM2HOhYuzEvDtpsOEPACd1Giv8alWdVDQtV8wlXAX4rr4Bzj5+qO1fFhjB01X4p/IZHKM3E7TEXSAkA8h+veL4NI7ioQQNwlVzyGkPDuElPaeiLhEBwj5MIbPmt7ekxBCCEXqMHfXCCGE8D4JeSGEUDAJeSGEUDAJeSGEUDCfhLza3586q3xprxCXU2e1ovb3b3V7OZ6Ep7buPz65u8YQEYGpuATHmTNXbyzELUbt748hIqLV7eV4Ep7auv/8rLGxsdGH8xFCCNGOpCYvhBAKJiEvhBAKJiEvhBAKJiEvhBAKJiEvhBAKJiEvhBAKJiEvhBAKJiEvhBAKJiEvhBAK5pOvNTj6nxpKKyvlMWwhLqPpsfQ+PXu0qr0cT8JTW/cfn4R8aWUl8QNiCNbKv/EoxMXqrFZMxSWtPkjleBKe2rr/+KRc4zhzRnZIIVoQrNW26axcjifhqa37j9TkhRBCwSTkhRBCwSTkhRBCwSTkhRBCwSTkhRBCwSTkhRBCwSTkhVCic3Zsp63YGpzXuL2Vmm+O4zzn3WmJG88nD0MphqWKw536ER7c3hMRorXsVG7KImPrcZriXdU5nozsx4lwr6/56giqOw3oAq7QTdVWFrxURMLi1aT09/mkhQ9JyJ9Xz+F9FnQP9EPrfr0jczhTeYfKFQl451GUanInDSKNVzjwl4novdKnEB6qNvLyVpj86mpGd1cB4LRaufDoTAX5L2+lxwoDCVcK+f7JbMgej6qzj+d7i1nwuxc5Zq6+Ypuou/qTsWi+18aUkG9yvJDM8dXM+va3xAIQRGLW/1JJkJcCHijPZ32nR0g6kcOO8omkRnmrYyFcnKes2AilRzfV+WUqrRYVgPUIpiITpVj5+uO11AR0xfjoGKIpZftOO8ZRWsp2mrBFj2d0mJn8j4/Q59ExRHeGGtNaSkPGYKgrZFNhEZU/dmXYY3NI6q9xDXLOytF9ueRsOwJ3Ghk9Us+xQxpGJhoIbJffRMdks9uv3sZ29TZt0TFq8mdrMa1fwtRJyUxNz8FkAXBg3p1D9qZyHO5m1uI8sj8owdriNk3qKd2aQ0ZaMmlLcyg45oBjhWSvLsR8vk01BavXUHAMHMfL2bF9N2aK2bx6zfl25j155O7x+NStr2LH6suPaf58DVvKazHvziMjLZmxM5eQW+7AU+nfttJt9HzSn9Cy+W/lzda5tq/Hsi/PPX41Bau3UWqppiBvGWmTkpmankep7bp/20LBVOEGYlQlZL+Si+kb6yXrNSoVTlT0DDdwX3RfdCqgwcw/Psnl5Te3cqjB3bDBzD92lfAf9+vvq4pY99oqvnAaGPfMHCb3OM6HKzdS6W5ek5/F85ucDJqzkNSH9NR8msuHB8zI7trc7JlPeqVNW3SAkK9lx7NJZNsSyHj3HTIetJA5Yjkmhxq9MZpTf3qeP/7TAbb9rJiWj/aBGLQtbuPub84wkj+uZ+C43zJ2SD+64IDvyslYWo7FY9yypcso+871SqsOoBQd4fdGYbg3DC1gKVtGRlmtq4GjnJVTJpN7bgjpq94gfbCFzBFz2XHctdpStozU6YvZ4Yhm6h9eIbV3GWnzcihtGs6xn0/f1ZFoDEP/wCNo393pnu+F7VdnzCWzsN5jfnOZujgfR3QKGa9NJ7zsBdI+aP7hIEQz2iGkvz6Hh7WlrM2YT3LqEnJKTrrX9SUmWk8XNPSJNhIT41mX15IwfSGpKU8x+u4W/naNH0PK4Eh6dNYT/1A8utN2dxmogi8+PUn8lFSG9uqKrpeR0cMjff5Wb0ZRd/XnNyOHtbh+fNJoevcK8+qY7V+uObab9Xsmkr4qzlWjHjqRKZFJHKyYT/y9MTybNYqkjDfJjM7D/PstZPS+yjba3azfNJSsst+S6HnB9LuWp6AOjSI+2vWLveeBOHe5pjlH0VYyG2ZQ8MwQwgFGPUN6cX8yts8gcYa77jJ+BqmjXD/rJ08k/s3a83+FOA7uJzc6gR29AeIYG53E3oPPEP+A+vwYpXHPUJAW435VAsCUGdNJjAIIY8qkOFZamv91IMQlgg2Mnp3J6HNWKr9Yy2t/TOf7eauZG6u6+ratpdbQ5fwLO87T8PNAL/avYBPGPsyB4v+h9mTzUOqtD2NC0sNeH6/9Q/67WkxsJXPS/vOLTlTomOKemXpACmnR9zDl3y9iygy7+jbf1WIijHQv3xFjrauGO6Ppdn6JGn1kAqXFFqxcpriuDvCo5Ts4UPgW+qg3MO/b7yoZ9dOy8tP9zHpgSKtr/gGBQdf1HsQtxk9LxIhkxu5fwt66k0CojwZSgQp+sDldP4srCtRomD3zSTKWLW+23NtlmibtH/IAkdNZ0dLdJtWFbP5bAol3vskft48ie3TIlbcpBmi4eOn181PD2eY9W48Xg27G1UO6rpDNq2OISLNQ+qW7YBQ4gNh38zEtGNL8Lw4hrofdyimVli5NWfttEXu/Ad1DXV2v/QDsfP8DEOKtQQ0MGqFh0ea1DApLpr/qJEWmCpD7x1rUVLb562dfAL4p0zRp/5CPjmFexXK2/HMU8+6/+Ey1mi1Ll9LlD1+Q2T2PxClL2RH7BolX2iY6hnm6uazbNJHYcR6/tDtCiKeEE3VAMFBn4QRcODPvBDosnLLB5W4H0BniGD5zJ6bqR0gOA2wlfPoJTE3vd9W3aC0qJHf045QueASdx3vTfjmIzXvmkzjGa0ebuNVVb2VelgkbKroEODl1WkWfMXN4qqlUExzPqNgdvLF4OlvQM23VYhK8MGzEhMWk/5TNutdfgjsMTLu/L/yfFzpWsAljH+arf7suXfuiTNOk/UNeHcezH4whdfo9DLwjDn1gA2ZzOJlbXyHi8yX8d/CrmB4MAqaTNSuJ5MxtGFY90uI2w3VxPPvBM6ROH0S3OQAhJK/7KytGxTFl3HKmPpRE/B0QYBxF9FCPedw7hLQHnmBKeA7o5lPwP79tPs/eE8ncUEXa6IGsDg+Hw9VEzHmP7KFXK6FUs+ODPBLHzfcIeIAwho9LIG3TbsxjJl7/71EIgP6P896fk3G6L4r6a7So/DwbaImft5r4Zhslsuz9xOb9hDRfFv3EGjZest7jtV9XYqYsJmaK6+WpPS+BH/hf/ztSrECNhtdeXuLzcX7W2NjY6O1ON+Z/xviEkW3ezlFfTwNqtEHqqzduxTaO+nrQBKHudFF7dRDa1g/R3FkHVrsDrqcPcctryzFyrcfTjWSrMvEv9NzXTYvthImcVVtxTlhOerz8i1a+0JZ9ov3P5D2og4Joa25eaRt10KVn2dcyRjOd2vYhJMStwD/AydcfreXDGjtouhL/RCaTYyTgO4IOFfJCiJuTqucQUp4dQkp7T0RcogM8DCWEEMJXJOSFEELBJOSFEELBJOSFEELBJOSFEELBfBLyan9/6qyXfs2pEALqrFbU/q1/TEiOJ+GprfuPT26hNEREYCouwXHmzNUbC3GLUfv7Y4iIaHV7OZ6Ep7buPz554lUIIUTHIDV5IYRQMAl5IYRQMAl5IYRQMAl5IYRQMAl5IYRQMAl5IYRQMAl5IYRQMAl5IYRQMAl5IYRQMAl5IYRQMAl5IYRQMAl5IYRQMAl5IYRQMAl5IYRQsP8fyzPi4gpx4VMAAAAASUVORK5CYII=;" vertex="1" parent="1">
          <mxGeometry x="-40.43000000000001" y="390" width="232.85" height="210" as="geometry" />
        </mxCell>
      </root>
    </mxGraphModel>
  </diagram>
</mxfile>
